<?xml version="1.0" standalone="no"?>
<!DOCTYPE svg PUBLIC "-//W3C//DTD SVG 20010904//EN"
 "http://www.w3.org/TR/2001/REC-SVG-20010904/DTD/svg10.dtd">
<svg version="1.0" xmlns="http://www.w3.org/2000/svg"
 width="4167.000000pt" height="4167.000000pt" viewBox="0 0 4167.000000 4167.000000"
 preserveAspectRatio="xMidYMid meet">
<metadata>
Created by potrace 1.14, written by Peter Selinger 2001-2017
</metadata>
<g transform="translate(0.000000,4167.000000) scale(0.100000,-0.100000)"
fill="#000000" stroke="none">
<path d="M11158 36465 c-2 -2 -42 -5 -90 -6 -48 -1 -113 -6 -145 -11 -32 -4
-72 -10 -90 -13 -131 -19 -322 -73 -482 -135 -89 -35 -309 -141 -351 -170 -14
-10 -48 -31 -76 -46 -57 -33 -249 -164 -279 -191 -11 -10 -50 -40 -85 -68
-136 -104 -389 -347 -517 -495 -21 -24 -46 -52 -55 -62 -106 -109 -434 -563
-543 -753 -16 -27 -33 -51 -37 -53 -4 -2 -8 -8 -8 -13 0 -5 -25 -53 -56 -107
-65 -111 -234 -450 -234 -468 0 -6 -7 -17 -15 -24 -8 -7 -15 -19 -15 -27 0 -8
-11 -38 -23 -66 -31 -69 -62 -140 -63 -147 0 -3 -6 -18 -13 -35 -117 -291
-253 -785 -286 -1039 -3 -27 -8 -52 -9 -55 -2 -3 -7 -33 -10 -66 -4 -33 -11
-89 -16 -125 -5 -36 -11 -96 -15 -135 -3 -38 -8 -84 -10 -101 -3 -17 -8 -80
-11 -140 -3 -60 -7 -129 -10 -154 -5 -57 -5 -661 0 -795 7 -155 25 -437 31
-475 2 -14 6 -56 10 -95 3 -38 8 -81 10 -95 2 -14 6 -47 10 -75 14 -115 63
-413 70 -434 3 -8 8 -30 11 -50 7 -46 60 -281 79 -346 87 -306 152 -515 184
-590 5 -11 32 -81 61 -155 77 -200 101 -253 221 -497 l110 -222 -45 -131 c-25
-72 -48 -141 -50 -153 -3 -12 -12 -49 -20 -82 -16 -63 -40 -206 -52 -315 -9
-77 -10 -326 -2 -425 6 -63 21 -173 33 -232 3 -13 7 -35 11 -50 18 -94 50
-195 284 -903 31 -96 112 -344 180 -550 67 -206 126 -384 130 -395 5 -11 39
-112 75 -225 143 -443 309 -938 332 -995 88 -214 215 -425 372 -615 59 -72
238 -248 301 -296 29 -22 51 -47 51 -59 3 -44 7 -202 13 -467 11 -486 17 -598
42 -895 3 -38 7 -79 9 -93 2 -14 6 -50 10 -80 12 -111 57 -348 91 -478 19 -74
34 -136 34 -138 0 -1 -44 -24 -97 -51 -334 -164 -714 -412 -1083 -707 -118
-95 -374 -312 -431 -366 -14 -14 -77 -72 -140 -130 -266 -245 -733 -728 -1035
-1069 -177 -201 -482 -434 -875 -669 -48 -29 -91 -52 -97 -52 -6 0 -12 -3 -14
-7 -6 -15 -399 -217 -550 -284 -162 -71 -182 -80 -215 -95 -17 -8 -35 -14 -40
-14 -4 0 -19 -6 -33 -13 -14 -7 -54 -24 -90 -36 -36 -13 -78 -30 -95 -37 -36
-15 -311 -104 -410 -133 -180 -53 -453 -111 -635 -136 -25 -3 -56 -8 -70 -10
-14 -2 -45 -6 -70 -10 -50 -6 -117 -16 -141 -20 -9 -2 -40 -6 -70 -10 -30 -3
-79 -10 -109 -15 -30 -5 -77 -12 -105 -15 -106 -12 -153 -22 -255 -52 -226
-67 -454 -227 -595 -418 -188 -254 -268 -552 -232 -865 27 -231 148 -489 309
-657 106 -111 148 -143 406 -304 100 -63 195 -122 210 -132 15 -9 35 -20 44
-23 10 -4 18 -10 18 -15 0 -5 4 -9 9 -9 5 0 52 -27 104 -60 203 -127 556 -294
867 -408 114 -42 363 -124 419 -138 9 -2 88 -22 176 -44 154 -39 221 -54 295
-66 19 -3 38 -8 41 -10 3 -2 21 -6 40 -9 115 -19 148 -25 184 -30 22 -3 54 -7
70 -10 17 -2 53 -7 80 -10 28 -3 70 -8 95 -12 259 -33 787 -37 1105 -8 90 8
221 24 252 29 23 5 136 19 143 18 3 0 13 4 23 9 13 7 17 6 17 -6 0 -15 -107
-296 -148 -386 -11 -24 -36 -82 -57 -129 -138 -310 -319 -623 -503 -869 -272
-362 -598 -650 -957 -846 -149 -81 -242 -146 -350 -245 -50 -46 -86 -85 -185
-207 -94 -116 -228 -419 -245 -560 -2 -11 -6 -29 -9 -40 -19 -64 -26 -299 -13
-419 20 -173 59 -309 139 -474 72 -150 145 -255 263 -380 56 -59 64 -73 85
-150 13 -47 27 -92 31 -100 5 -8 22 -46 40 -85 45 -99 139 -233 222 -317 39
-39 125 -111 191 -159 67 -49 126 -92 131 -96 70 -56 326 -237 400 -284 109
-69 326 -179 459 -234 226 -93 553 -192 756 -229 14 -2 36 -7 50 -10 14 -3 43
-8 65 -11 42 -6 80 -12 130 -20 17 -3 57 -8 90 -11 33 -2 71 -7 84 -9 143 -25
758 -25 936 0 17 2 59 7 95 10 36 4 74 9 85 11 11 1 40 6 65 9 25 3 59 8 77
11 l32 6 -19 -61 c-10 -34 -21 -81 -25 -104 -4 -23 -10 -51 -12 -62 -11 -46
-9 -276 3 -350 18 -112 22 -130 48 -204 136 -387 423 -653 831 -770 175 -50
587 -157 645 -167 14 -3 61 -12 105 -20 44 -8 98 -17 120 -20 22 -3 51 -7 65
-10 14 -2 52 -6 85 -10 33 -3 71 -8 85 -10 153 -26 750 -25 970 1 19 3 58 7
86 10 29 3 60 7 70 9 11 2 39 7 64 10 25 3 55 8 66 10 12 2 37 7 55 10 31 5
105 19 154 30 376 80 810 247 1155 444 81 46 315 196 330 212 3 3 32 25 65 49
351 260 736 675 964 1041 60 98 199 361 233 445 118 284 196 537 247 805 26
139 29 157 36 210 3 25 7 54 9 65 2 11 7 49 11 85 3 36 8 76 10 90 26 172 26
821 0 1050 -2 19 -7 62 -9 94 -9 95 -27 238 -41 326 -2 14 -6 45 -9 70 -3 25
-8 54 -10 65 -2 11 -7 40 -10 65 -3 25 -8 56 -11 70 -2 14 -11 66 -19 115 -8
50 -18 103 -22 120 -7 29 -7 29 17 14 236 -151 681 -391 969 -523 104 -48 429
-186 436 -186 3 0 20 -6 37 -14 127 -57 636 -229 832 -281 157 -43 322 -86
340 -89 11 -2 27 -7 35 -10 8 -3 26 -7 40 -10 14 -2 68 -14 120 -26 143 -32
343 -71 485 -94 17 -3 44 -7 60 -10 28 -5 255 -37 364 -52 24 -3 62 -7 85 -10
22 -2 61 -6 86 -9 77 -9 163 -16 365 -30 355 -25 978 -25 1325 0 114 8 227 18
240 20 8 2 53 6 100 10 47 4 92 8 100 10 8 1 40 6 70 9 107 14 135 17 160 21
14 2 45 7 70 10 45 6 72 10 133 20 17 3 46 8 62 11 17 2 68 12 115 20 47 9 96
18 110 20 14 3 79 16 145 30 66 14 129 27 140 28 11 2 38 8 60 14 22 6 108 28
190 48 136 33 232 60 500 139 50 14 99 30 110 35 11 5 70 26 130 46 564 188
1162 468 1725 808 50 30 90 51 90 46 0 -4 -7 -43 -15 -86 -8 -44 -17 -99 -20
-124 -3 -25 -8 -52 -10 -60 -2 -8 -7 -39 -10 -69 -3 -30 -7 -57 -9 -60 -2 -3
-7 -33 -10 -66 -4 -33 -9 -67 -11 -75 -3 -14 -8 -45 -20 -157 -3 -27 -8 -61
-10 -78 -2 -16 -7 -66 -10 -110 -4 -44 -8 -95 -11 -114 -26 -228 -22 -734 7
-1006 16 -149 35 -291 43 -330 2 -5 7 -32 11 -60 5 -27 10 -52 10 -55 1 -3 5
-23 9 -45 27 -137 137 -515 176 -602 12 -27 18 -43 58 -138 28 -66 122 -262
142 -295 5 -8 35 -58 66 -110 49 -83 164 -255 201 -300 6 -8 45 -57 86 -107
157 -196 432 -474 572 -581 6 -4 48 -37 95 -73 340 -263 739 -476 1158 -616
57 -19 112 -36 121 -39 9 -2 48 -13 86 -24 73 -22 351 -84 420 -95 22 -3 52
-8 66 -10 72 -13 259 -34 369 -42 129 -10 571 -10 695 0 169 13 207 17 340 37
33 5 80 12 105 15 37 5 183 34 250 50 8 2 125 33 260 70 135 36 256 68 270 71
59 12 181 58 265 100 243 121 446 338 554 593 34 81 69 203 77 269 3 31 8 60
10 63 6 10 5 219 -1 264 -11 78 -26 155 -40 202 -20 64 -20 64 18 58 80 -12
186 -26 232 -31 28 -2 64 -7 80 -9 194 -25 788 -25 948 0 12 2 49 6 82 10 140
15 404 64 563 106 416 108 852 303 1122 502 36 26 112 82 170 125 58 42 154
113 215 157 112 81 265 222 265 243 0 7 4 12 9 12 9 0 84 109 123 180 35 64
78 174 99 253 13 53 26 76 56 105 205 201 370 515 408 777 3 22 8 47 12 55 12
34 11 328 -2 415 -63 414 -292 777 -630 1001 -55 37 -83 53 -225 132 -92 51
-277 178 -353 241 -160 135 -284 255 -393 381 -21 25 -41 47 -44 50 -3 3 -21
25 -40 50 -19 25 -37 47 -41 50 -3 3 -42 57 -86 120 -205 292 -341 546 -538
1005 -34 78 -115 298 -111 302 2 2 66 -5 142 -16 302 -44 480 -56 804 -55 279
0 430 8 680 38 120 14 297 42 390 61 14 3 37 7 52 10 16 3 58 12 95 21 38 9
77 18 88 21 11 2 25 5 30 7 9 2 124 29 135 31 118 23 647 208 850 297 14 6 27
12 30 13 40 14 319 152 390 193 49 28 326 199 560 345 225 141 323 222 421
352 167 222 240 432 243 700 1 154 -4 208 -29 305 -65 256 -189 455 -394 633
-148 128 -394 238 -586 262 -27 3 -57 8 -65 10 -8 2 -40 6 -70 10 -30 3 -66 7
-80 10 -35 5 -167 24 -215 30 -22 2 -49 6 -60 9 -11 2 -45 7 -75 10 -30 4 -66
8 -80 11 -14 2 -68 11 -120 20 -362 57 -913 227 -1287 396 -328 147 -540 256
-768 392 -55 33 -109 65 -120 71 -103 58 -438 298 -543 388 -78 68 -281 279
-404 421 -181 207 -819 845 -1008 1007 -14 12 -43 38 -65 59 -125 115 -330
280 -645 519 -184 140 -576 377 -803 487 -56 27 -77 42 -73 52 5 13 41 148 52
196 2 9 6 27 9 40 5 19 13 61 40 207 3 19 8 49 10 65 2 17 7 46 10 65 3 19 8
56 10 83 3 26 7 68 10 95 14 139 24 287 30 437 4 102 7 189 20 750 l5 210 52
44 c111 94 323 316 377 395 8 12 18 23 21 26 20 17 210 329 210 345 0 2 15 36
34 77 18 40 50 120 70 178 21 58 41 116 46 130 5 14 86 261 181 550 94 289
198 604 229 700 32 96 135 411 230 700 95 289 187 571 206 628 39 120 79 275
90 347 3 28 8 59 10 70 20 103 26 434 11 570 -21 199 -59 358 -133 565 l-35
95 46 85 c248 460 494 1131 589 1610 3 14 8 36 11 50 9 41 53 272 59 315 4 23
8 50 10 60 2 11 7 45 11 75 4 30 9 62 10 70 2 8 6 44 10 80 4 36 8 72 10 80 5
26 16 152 30 335 20 272 26 888 11 1120 -13 197 -22 309 -31 375 -2 14 -7 54
-10 90 -4 36 -9 74 -11 85 -2 10 -6 37 -9 60 -9 62 -24 157 -30 185 -3 14 -8
41 -11 60 -5 29 -67 303 -79 350 -124 485 -431 1176 -705 1589 -22 33 -40 65
-40 71 0 5 -4 10 -9 10 -5 0 -13 9 -16 20 -3 11 -12 26 -19 32 -7 7 -32 42
-56 78 -63 94 -274 371 -325 426 -5 6 -37 42 -70 80 -167 192 -432 436 -639
590 -346 257 -771 454 -1096 509 -19 3 -42 8 -50 10 -8 2 -44 7 -80 11 -36 4
-76 8 -90 10 -33 5 -283 5 -340 0 -60 -5 -161 -17 -180 -22 -8 -2 -49 -11 -90
-19 -41 -9 -129 -34 -195 -56 -657 -218 -1115 -743 -1221 -1399 -3 -19 -9 -53
-14 -75 -9 -38 -6 -482 3 -540 14 -90 19 -117 32 -190 9 -44 20 -95 25 -115 5
-19 11 -48 14 -65 7 -41 103 -371 121 -418 25 -62 21 -69 -57 -110 -74 -38
-184 -106 -233 -142 -15 -11 -48 -35 -74 -54 -25 -19 -48 -37 -51 -40 -3 -4
-23 -21 -45 -40 -115 -97 -243 -231 -360 -376 -312 -387 -554 -897 -685 -1439
-36 -147 -75 -354 -85 -445 -4 -34 -11 -96 -20 -171 -28 -229 -23 -758 10
-1005 2 -16 7 -52 10 -80 4 -27 8 -61 10 -74 2 -13 7 -43 10 -65 4 -23 8 -48
9 -56 2 -8 6 -37 11 -65 10 -68 61 -293 86 -385 11 -41 22 -82 24 -90 11 -42
45 -153 49 -158 3 -3 -14 -41 -38 -86 -67 -123 -126 -270 -197 -486 -35 -107
-64 -197 -64 -200 0 -3 -6 -18 -12 -35 -12 -29 -223 -670 -227 -690 -5 -22
-288 -882 -298 -905 -5 -14 -12 -36 -15 -50 -2 -13 -10 -31 -16 -39 -7 -8 -11
-17 -9 -20 1 -3 -43 -145 -99 -316 -159 -487 -179 -564 -204 -789 -14 -122
-14 -392 0 -496 7 -55 40 -238 49 -275 28 -114 70 -246 102 -322 58 -137 110
-241 177 -350 l53 -87 -117 -176 c-164 -246 -358 -568 -439 -729 -28 -57 -90
-245 -90 -276 0 -28 -14 -37 -95 -60 -33 -9 -64 -17 -70 -19 -5 -1 -31 -6 -57
-10 -42 -7 -51 -5 -92 22 -25 17 -130 78 -233 137 -103 58 -195 110 -203 115
-8 5 -84 44 -168 87 l-152 77 4 36 c8 57 16 130 21 200 3 36 7 88 10 115 14
151 26 384 30 620 2 105 4 193 5 197 0 4 42 35 93 69 275 185 505 391 705 634
90 110 91 112 122 155 13 19 27 37 30 40 3 3 38 55 78 117 146 229 268 481
347 724 26 79 49 151 51 159 22 91 45 192 50 220 3 19 10 54 15 78 5 24 12 67
15 95 3 29 7 54 9 57 8 13 19 238 19 385 0 148 -8 333 -18 380 -2 11 -7 43
-11 70 -13 98 -15 110 -19 133 -3 13 -7 31 -10 40 -3 9 -7 33 -10 52 -8 55
-43 184 -82 305 -82 251 -194 492 -334 715 -52 84 -170 251 -193 275 -7 7 -25
29 -42 50 -93 119 -286 313 -428 431 -261 218 -539 384 -855 511 -128 51 -332
118 -396 129 -16 3 -32 7 -36 9 -4 2 -22 7 -41 10 -19 3 -50 10 -69 15 -19 5
-57 12 -85 16 -27 3 -52 8 -55 9 -3 2 -37 6 -75 10 -39 4 -72 9 -75 10 -27 16
-421 23 -590 11 -148 -11 -482 -64 -510 -81 -4 -2 -20 -6 -36 -9 -16 -3 -65
-16 -109 -30 -258 -77 -499 -181 -711 -306 -77 -45 -289 -185 -304 -200 -3 -3
-49 -41 -104 -84 -118 -94 -347 -320 -435 -429 -35 -43 -67 -75 -70 -70 -424
513 -891 843 -1486 1049 -81 29 -236 72 -315 89 -153 33 -180 38 -275 50 -27
4 -59 8 -71 10 -143 23 -540 23 -714 0 -19 -3 -55 -7 -80 -10 -51 -6 -84 -11
-155 -25 -27 -6 -59 -12 -70 -14 -285 -55 -645 -192 -920 -351 -91 -52 -247
-152 -285 -182 -8 -6 -51 -40 -95 -74 -278 -216 -526 -487 -718 -782 -95 -146
-210 -365 -271 -517 -21 -52 -42 -104 -46 -115 -22 -48 -103 -323 -115 -387
-3 -13 -7 -34 -10 -48 -3 -14 -7 -36 -10 -50 -3 -14 -9 -47 -15 -75 -5 -27
-12 -76 -15 -109 -3 -32 -7 -62 -10 -66 -6 -10 -18 -227 -19 -345 0 -97 10
-314 18 -365 2 -14 6 -50 10 -80 4 -30 12 -82 18 -115 5 -33 11 -64 12 -70 1
-5 5 -16 9 -22 5 -7 6 -13 4 -13 -11 0 73 -317 93 -352 6 -10 10 -23 10 -29 0
-44 159 -394 251 -555 63 -110 229 -356 259 -384 3 -3 38 -45 79 -94 190 -227
454 -460 706 -621 33 -21 62 -40 65 -42 2 -2 5 -57 6 -121 3 -173 14 -508 19
-531 2 -10 6 -68 10 -128 3 -59 8 -124 10 -143 5 -40 11 -98 20 -190 l7 -66
-139 -71 c-205 -104 -279 -145 -482 -265 -101 -59 -190 -108 -198 -108 -16 0
-158 35 -210 51 -29 9 -32 15 -48 85 -9 42 -32 114 -51 160 -33 82 -49 114
-129 254 -21 36 -49 85 -63 110 -55 98 -189 309 -310 489 -74 109 -83 127 -72
144 6 11 20 35 30 53 11 18 30 50 43 71 87 138 207 437 242 603 40 185 48 236
60 370 7 77 7 272 0 350 -7 77 -35 283 -40 291 -2 3 -6 16 -9 30 -17 91 -48
192 -194 634 -38 116 -149 453 -247 750 -97 297 -226 689 -286 870 -60 182
-137 418 -172 525 -78 237 -112 322 -183 464 -31 60 -53 117 -51 125 3 9 21
72 42 141 20 69 39 136 41 150 3 14 11 50 19 81 17 66 61 286 70 349 3 25 8
56 10 70 38 249 53 477 49 785 -2 154 -5 298 -8 320 -3 22 -8 69 -11 105 -7
75 -12 114 -31 238 -21 141 -84 422 -125 557 -7 22 -13 42 -14 45 -3 14 -28
88 -35 105 -5 11 -16 42 -25 69 -70 217 -239 557 -388 781 -225 338 -516 633
-793 802 -79 48 -154 91 -181 102 -37 15 -39 25 -18 78 30 77 148 503 139 503
-3 0 -1 8 5 18 5 9 11 35 14 57 3 22 13 78 21 125 35 204 41 531 12 670 -1 8
-6 38 -10 65 -14 89 -62 262 -93 335 -66 154 -91 202 -161 310 -137 212 -339
408 -560 543 -144 87 -428 207 -552 232 -14 2 -59 11 -100 20 -106 21 -132 25
-250 31 -58 3 -113 7 -122 8 -9 2 -18 2 -20 1z m9767 -11840 c173 -207 422
-430 661 -590 98 -67 118 -86 116 -115 0 -3 -3 -23 -7 -45 -3 -22 -8 -58 -11
-80 -2 -22 -6 -49 -8 -60 -3 -11 -5 -30 -5 -43 -1 -22 -3 -22 -73 -17 -258 19
-469 28 -723 28 -202 1 -577 -9 -660 -17 -157 -16 -204 -16 -209 2 -7 20 -36
228 -36 252 0 10 28 35 68 60 67 44 253 177 262 190 3 3 15 13 26 21 81 55
316 286 430 423 43 53 79 96 80 96 0 0 40 -47 89 -105z"/>
</g>
</svg>
